<?xml version="1.0" encoding="utf-8"?>
<!-- Generator: Adobe Illustrator 25.0.0, SVG Export Plug-In . SVG Version: 6.00 Build 0)  -->
<svg version="1.1" id="Layer_1" xmlns="http://www.w3.org/2000/svg" xmlns:xlink="http://www.w3.org/1999/xlink" x="0px" y="0px"
     width="57" height="25" viewBox="0 0 57 25" style="enable-background:new 0 0 57 25;" xml:space="preserve">
<style type="text/css">
	.st0{fill:#56F24B;}
	.st1{clip-path:url(#SVGID_2_);fill:#FFFFFF;}
</style>
<g>
	<g>
		<path class="st0" d="M28.6,25c-6.9,0-11.9-4.5-11.9-10.6c0-3.9,1.9-5,4.6-6.6c0.8-0.5,1.7-1,2.6-1.6c2-1.4,2.9-2.8,3.6-3.8
			C28.3,1.1,29,0,31,0c5.1,0,9.3,7,9.5,13.1C40.4,19.7,35.1,25,28.6,25z M31,1c-1.5,0-1.9,0.6-2.7,1.8c-0.7,1.1-1.7,2.5-3.8,4.1l0,0
			c-1,0.7-1.9,1.2-2.7,1.7c-2.6,1.5-4.1,2.4-4.1,5.7c0,5.6,4.6,9.6,10.9,9.6c5.9,0,10.8-4.8,10.9-10.8C39.3,7.6,35.6,1,31,1z"/>
	</g>
	<g>
		<g>
			<defs>
				<path id="SVGID_1_" d="M46.6,6.1c0.3,0,0.6,0.1,0.9,0.3c0.2,0.2,0.3,0.5,0.3,0.8S47.7,7.8,47.5,8c-0.2,0.2-0.6,0.3-0.9,0.3
					c-0.3,0-0.6-0.1-0.9-0.3c-0.2-0.2-0.3-0.5-0.3-0.8s0.1-0.6,0.3-0.8C45.9,6.1,46.2,6,46.6,6.1z M14.6,11.2
					c-0.7,0-1.4,0.2-1.9,0.7c-0.4,0.4-0.7,0.9-0.8,1.6h5.3c-0.1-0.7-0.4-1.2-0.8-1.6C15.9,11.4,15.2,11.2,14.6,11.2z M30.2,11.7
					c-0.8-0.4-1.8-0.4-2.7,0c-0.4,0.2-0.8,0.6-1,1c-0.3,0.5-0.4,1.1-0.4,1.7c0,0.6,0.1,1.2,0.4,1.7c0.2,0.4,0.6,0.8,1,1
					c0.8,0.4,1.8,0.4,2.7,0c0.4-0.2,0.8-0.6,1-1c0.3-0.5,0.4-1.1,0.4-1.7c0-0.6-0.1-1.2-0.4-1.7C31,12.3,30.6,11.9,30.2,11.7z
					 M40.1,9.6c1.1,0,1.9,0.3,2.6,1c0.6,0.7,1,1.7,1,2.9v5.3h-1.9v-5.1c0-0.8-0.2-1.5-0.6-1.9c-0.4-0.4-1-0.7-1.7-0.7
					c-0.8,0-1.4,0.2-1.8,0.7S37,13,37,13.9v4.9h-2v-9h1.9v1.7C37.4,10.6,38.4,9.6,40.1,9.6z M47.5,9.8v9.1h-1.9V9.8H47.5z M22.6,6.7
					V19h-1.9V6.7H22.6z M53,9.6c2.2,0,3.6,1.1,3.7,2.7v0.2h-1.8c0-1-1-1.4-2-1.4c-0.8,0-1.6,0.4-1.6,1.1c0,0.8,0.8,1,2.3,1.4
					c1.9,0.6,3.4,1,3.4,2.9c0,1.7-2,2.6-3.8,2.6C50.9,19.1,49,18,49,16h1.9c0,1,1.2,1.5,2.2,1.5s2.1-0.3,2.1-1.1
					c0-1-0.8-1.1-2.4-1.6c-2-0.6-3.4-1-3.4-2.6S51.2,9.6,53,9.6z M28.9,9.7c0.8,0,1.7,0.2,2.4,0.6c0.7,0.4,1.3,0.9,1.7,1.6
					c0.4,0.8,0.6,1.6,0.6,2.5s-0.2,1.7-0.6,2.5c-0.4,0.7-1,1.3-1.7,1.6c-0.7,0.4-1.6,0.6-2.4,0.6s-1.6-0.2-2.4-0.6
					c-0.7-0.4-1.3-0.9-1.7-1.6c-0.4-0.8-0.6-1.6-0.6-2.5s0.2-1.7,0.6-2.5c0.4-0.7,1-1.3,1.7-1.6C27.2,9.9,28,9.7,28.9,9.7z M4.5,9.7
					c1.2,0,2.2,0.3,2.9,0.9l0,0c0.8,0.6,1.3,1.5,1.4,2.5h-2c-0.1-0.5-0.4-1-0.8-1.3c-0.5-0.3-1-0.5-1.6-0.5c-0.7,0-1.4,0.3-1.8,0.8
					c-0.5,0.5-0.7,1.3-0.7,2.3s0.2,1.8,0.7,2.3c0.5,0.5,1.1,0.8,1.8,0.8C5,17.5,5.5,17.3,6,17c0.4-0.3,0.7-0.8,0.8-1.4h2
					c-0.2,1.1-0.7,1.9-1.4,2.5S5.6,19,4.5,19c-0.8,0-1.6-0.2-2.3-0.6S1,17.5,0.6,16.8C0.2,16.1,0,15.2,0,14.4c0-0.9,0.2-1.7,0.6-2.5
					c0.4-0.7,0.9-1.3,1.6-1.6C2.9,9.9,3.7,9.7,4.5,9.7z M14.6,9.7c0.8,0,1.6,0.2,2.3,0.6c0.7,0.4,1.2,0.9,1.6,1.6
					c0.4,0.8,0.6,1.6,0.6,2.5c0,0.1,0,0.3,0,0.4h-7.2c0,0.9,0.3,1.6,0.8,2.1c0.5,0.5,1.2,0.7,1.9,0.7s1.4-0.2,1.9-0.7
					c0.3-0.3,0.5-0.7,0.6-1.1H19c-0.1,0.4-0.2,0.8-0.4,1.1c-0.4,0.7-0.9,1.2-1.6,1.6s-1.5,0.6-2.3,0.6s-1.6-0.2-2.3-0.6
					s-1.2-0.9-1.6-1.6c-0.4-0.8-0.6-1.6-0.6-2.5s0.2-1.7,0.6-2.5c0.4-0.7,0.9-1.2,1.6-1.6C12.9,9.9,13.7,9.7,14.6,9.7z"/>
			</defs>
			<clipPath id="SVGID_2_">
				<use xlink:href="#SVGID_1_"  style="overflow:visible;"/>
			</clipPath>
			<rect x="-5" y="1" class="st1" width="67" height="23"/>
		</g>
	</g>
</g>
</svg>
